<?xml version="1.0" encoding="utf-8"?>
<svg version="1.1" x="0px" y="0px" viewBox="-4 -7 72 72" xmlns="http://www.w3.org/2000/svg"
  xmlns:bx="https://boxy-svg.com">
  <defs>
    <linearGradient id="gradient-2" bx:pinned="true">
      <stop offset="0.705" style="stop-color: rgb(234, 242, 239);" />
      <stop offset="0.718" style="stop-color: rgb(225, 225, 225);" />
      <stop offset="1" style="stop-color: rgb(225, 225, 225);" />
    </linearGradient>
    <linearGradient id="gradient-3" bx:pinned="true">
      <stop offset="0.705" style="stop-color: rgb(56, 62, 67);" />
      <stop offset="0.718" style="stop-color: rgb(54, 57, 58);" />
      <stop offset="1" style="stop-color: rgb(54, 57, 58);" />
    </linearGradient>
    <linearGradient id="color-0" gradientUnits="userSpaceOnUse" bx:pinned="true">
      <stop style="stop-color: rgb(26, 26, 26)" />
    </linearGradient>
    <radialGradient id="gradient-4" cx="30.628" cy="28.344" r="12.849" gradientUnits="userSpaceOnUse"
      gradientTransform="matrix(1.476827, 0.076307, -0.027621, 0.53457, -14.314977, 8.089157)">
      <stop offset="0.705" style="stop-color: rgb(56, 62, 67);" />
      <stop offset="0.718" style="stop-color: rgb(54, 57, 58);" />
      <stop offset="1" style="stop-color: rgb(54, 57, 58);" />
    </radialGradient>
    <radialGradient id="gradient-5" cx="27.576" cy="12.165" r="10.25" gradientUnits="userSpaceOnUse"
      gradientTransform="matrix(1.726235, 0.072786, -0.069906, 1.65789, -18.038543, -11.196585)">
      <stop offset="0.648" style="stop-color: rgb(56, 62, 67);" />
      <stop offset="0.666" style="stop-color: rgb(54, 57, 58);" />
      <stop offset="1" style="stop-color: rgb(54, 57, 58);" />
    </radialGradient>
    <radialGradient id="gradient-6" cx="21.819" cy="45.237" r="17.94" gradientUnits="userSpaceOnUse"
      gradientTransform="matrix(2.6801, 0.132995, -0.075842, 1.528393, -42.690254, -27.223866)">
      <stop offset="0.705" style="stop-color: rgb(56, 62, 67);" />
      <stop offset="0.716" style="stop-color: rgb(54, 57, 58);" />
      <stop offset="1" style="stop-color: rgb(54, 57, 58);" />
    </radialGradient>
  </defs>
  <g style="filter: none;" transform="matrix(1, 0, 0, 1, 54.228188, -4.939596)" />
  <g>
    <path
      d="M44.85,27c0,1.65-1.569,2.99-3.489,2.99H22.64c-1.92,0-3.489-1.34-3.489-2.99s1.569-2.99,3.489-2.99H41.36   C43.28,24.01,44.85,25.35,44.85,27z"
      style="stroke-linejoin: round; stroke-linecap: round; stroke-width: 2.3px; stroke: rgb(35, 35, 35); fill: url('#gradient-4');" />
    <path
      d="M42.25,13.3c0,4.5-2.92,8.34-6.97,9.71H28.72c-4.05-1.37-6.97-5.21-6.97-9.71c0-5.66,4.6-10.26,10.25-10.26   S42.25,7.64,42.25,13.3z"
      style="stroke-linejoin: round; stroke-linecap: round; stroke-width: 2.3px; stroke: rgb(35, 35, 35); fill: url('#gradient-5');" />
    <path
      d="M49.94,52.52v7.94c0,0.27-0.23,0.5-0.5,0.5H14.56c-0.27,0-0.5-0.23-0.5-0.5v-7.94c0-0.14,0.061-0.28,0.171-0.37   c11.149-10.02,9.949-20.8,9.939-20.9c-0.01-0.09,0-0.18,0.04-0.26h15.58c0.04,0.08,0.05,0.16,0.04,0.25   c-0.01,0.11-1.19,10.91,9.939,20.91C49.88,52.24,49.94,52.38,49.94,52.52z"
      style="stroke-linejoin: round; stroke-linecap: round; stroke-width: 2.3px; stroke: rgb(35, 35, 35); fill: url('#gradient-6');" />
  </g>
</svg>