<?xml version="1.0" encoding="utf-8"?>
<svg version="1.1" x="0px" y="0px" viewBox="0 -1 64 64" xmlns="http://www.w3.org/2000/svg"
  xmlns:bx="https://boxy-svg.com">
  <defs>
    <linearGradient id="color-0" bx:pinned="true">
      <stop style="stop-color: #3c3b3f;" offset="0.36" />
      <stop style="stop-color: rgb(28, 27, 23);" offset="1" />
    </linearGradient>
    <radialGradient id="gradient-0" cx="20.679" cy="45.013" r="19.245" gradientUnits="userSpaceOnUse"
      gradientTransform="matrix(2.149781, 0.065921, -0.05359, 1.747625, -21.828563, -40.798709)">
      <stop style="stop-color: rgb(234, 242, 239);" offset="0.705" />
      <stop offset="0.718" style="stop-color: rgb(225, 225, 225);" />
      <stop style="stop-color: rgb(225, 225, 225);" offset="1" />
    </radialGradient>
    <radialGradient id="gradient-1" cx="17.842" cy="28.24" r="21.56" gradientUnits="userSpaceOnUse"
      gradientTransform="matrix(2.509372, 0.365618, -0.258142, 1.771726, -28.318981, -30.188719)" spreadMethod="pad">
      <stop style="stop-color: rgb(234, 242, 239);" offset="0.721" />
      <stop offset="0.734" style="stop-color: rgb(225, 225, 225);" />
      <stop style="stop-color: rgb(152, 152, 158);" offset="1" />
    </radialGradient>
    <linearGradient id="gradient-2" bx:pinned="true">
      <stop offset="0.705" style="stop-color: rgb(234, 242, 239);" />
      <stop offset="0.718" style="stop-color: rgb(225, 225, 225);" />
      <stop offset="1" style="stop-color: rgb(225, 225, 225);" />
    </linearGradient>
  </defs>
  <g style="filter: none;">
    <path
      d="M54.117,55.421v3.86h-38.49v-3.86c0-1.42,0.27-2.64,0.8-3.63c0.01-0.01,0.02-0.03,0.03-0.05c1.19-2.18,3.67-3.38,7.81-3.75   c1.01-0.1,2.1-0.14,3.34-0.14h14.54c1.43,0,2.75,0.06,3.91,0.2c3.83,0.43,6.22,1.68,7.31,3.83c0.01,0.02,0.03,0.05,0.04,0.07   C53.877,52.901,54.117,54.071,54.117,55.421z"
      style="stroke-linejoin: round; stroke-linecap: round; stroke-width: 2.1px; filter: none; paint-order: fill; fill: url('#gradient-0'); stroke: rgb(55, 55, 55);" />
    <path
      d="M50.297,48.021c-0.3-0.12-0.62-0.24-0.95-0.34c-0.94-0.29-2-0.5-3.18-0.63c-1.2-0.13-2.55-0.2-4.02-0.2h-14.54   c-1.27,0-2.39,0.04-3.44,0.14c-0.69,0.06-1.35,0.15-1.96,0.27c-0.34,0.05-0.67,0.13-0.99,0.21c-0.58-4.06,2.94-6.72,6.34-9.29   c2.24-1.7,4.56-3.45,5.86-5.63c1.03-1.72,1.33-3.03,0.88-3.79c-0.42-0.71-1.44-0.86-1.94-0.89c-0.62,1.14-3.18,5.05-9.49,5.55   c-1.06,0.95-1.81,1.71-2.42,2.33c-1.32,1.34-1.98,2.01-3.35,2.01c-1.29,0-5-0.95-6.54-3.31c-0.82-1.25-0.89-2.66-0.22-4.19   c1.95-4.49,6.24-9.71,7.01-10.62c0.07-1.32,0.71-9.01,6.37-10.02c0.56-3,1.35-4.54,2.46-4.85c0.8-0.21,1.63,0.2,2.55,1.26   c2.13,2.49,3.75,3.54,5.58,3.66c2.01,0.12,14.56,4.29,17.14,13.34C53.907,31.622,53.397,42.292,50.297,48.021z"
      style="stroke-linejoin: round; stroke-linecap: round; stroke-width: 2.1px; filter: none; fill: url('#gradient-1'); stroke: rgb(55, 55, 55); fill-rule: nonzero; paint-order: fill;" />
  </g>
</svg>